<svg id="wave" style="transform:rotate(180deg); transition: 0.3s" viewBox="0 0 1440 440" version="1.1" xmlns="http://www.w3.org/2000/svg"><defs><linearGradient id="sw-gradient-0" x1="0" x2="0" y1="1" y2="0"><stop stop-color="rgba(243, 106, 62, 1)" offset="0%"></stop><stop stop-color="rgba(255, 179, 11, 1)" offset="100%"></stop></linearGradient></defs><path style="transform:translate(0, 0px); opacity:1" fill="url(#sw-gradient-0)" d="M0,88L34.3,95.3C68.6,103,137,117,206,139.3C274.3,161,343,191,411,205.3C480,220,549,220,617,198C685.7,176,754,132,823,102.7C891.4,73,960,59,1029,95.3C1097.1,132,1166,220,1234,264C1302.9,308,1371,308,1440,300.7C1508.6,293,1577,279,1646,286C1714.3,293,1783,323,1851,337.3C1920,352,1989,352,2057,315.3C2125.7,279,2194,205,2263,161.3C2331.4,117,2400,103,2469,117.3C2537.1,132,2606,176,2674,161.3C2742.9,147,2811,73,2880,51.3C2948.6,29,3017,59,3086,58.7C3154.3,59,3223,29,3291,73.3C3360,117,3429,235,3497,278.7C3565.7,323,3634,293,3703,242C3771.4,191,3840,117,3909,102.7C3977.1,88,4046,132,4114,154C4182.9,176,4251,176,4320,168.7C4388.6,161,4457,147,4526,168.7C4594.3,191,4663,249,4731,256.7C4800,264,4869,220,4903,198L4937.1,176L4937.1,440L4902.9,440C4868.6,440,4800,440,4731,440C4662.9,440,4594,440,4526,440C4457.1,440,4389,440,4320,440C4251.4,440,4183,440,4114,440C4045.7,440,3977,440,3909,440C3840,440,3771,440,3703,440C3634.3,440,3566,440,3497,440C3428.6,440,3360,440,3291,440C3222.9,440,3154,440,3086,440C3017.1,440,2949,440,2880,440C2811.4,440,2743,440,2674,440C2605.7,440,2537,440,2469,440C2400,440,2331,440,2263,440C2194.3,440,2126,440,2057,440C1988.6,440,1920,440,1851,440C1782.9,440,1714,440,1646,440C1577.1,440,1509,440,1440,440C1371.4,440,1303,440,1234,440C1165.7,440,1097,440,1029,440C960,440,891,440,823,440C754.3,440,686,440,617,440C548.6,440,480,440,411,440C342.9,440,274,440,206,440C137.1,440,69,440,34,440L0,440Z"></path></svg>