<svg id="wave" style="transform:rotate(0deg); transition: 0.3s" viewBox="0 0 1440 440" version="1.1" xmlns="http://www.w3.org/2000/svg"><defs><linearGradient id="sw-gradient-0" x1="0" x2="0" y1="1" y2="0"><stop stop-color="rgba(243, 106, 62, 1)" offset="0%"></stop><stop stop-color="rgba(255, 179, 11, 1)" offset="100%"></stop></linearGradient></defs><path style="transform:translate(0, 0px); opacity:1" fill="url(#sw-gradient-0)" d="M0,88L40,95.3C80,103,160,117,240,139.3C320,161,400,191,480,205.3C560,220,640,220,720,198C800,176,880,132,960,102.7C1040,73,1120,59,1200,95.3C1280,132,1360,220,1440,264C1520,308,1600,308,1680,300.7C1760,293,1840,279,1920,286C2000,293,2080,323,2160,337.3C2240,352,2320,352,2400,315.3C2480,279,2560,205,2640,161.3C2720,117,2800,103,2880,117.3C2960,132,3040,176,3120,161.3C3200,147,3280,73,3360,51.3C3440,29,3520,59,3600,58.7C3680,59,3760,29,3840,73.3C3920,117,4000,235,4080,278.7C4160,323,4240,293,4320,242C4400,191,4480,117,4560,102.7C4640,88,4720,132,4800,154C4880,176,4960,176,5040,168.7C5120,161,5200,147,5280,168.7C5360,191,5440,249,5520,256.7C5600,264,5680,220,5720,198L5760,176L5760,440L5720,440C5680,440,5600,440,5520,440C5440,440,5360,440,5280,440C5200,440,5120,440,5040,440C4960,440,4880,440,4800,440C4720,440,4640,440,4560,440C4480,440,4400,440,4320,440C4240,440,4160,440,4080,440C4000,440,3920,440,3840,440C3760,440,3680,440,3600,440C3520,440,3440,440,3360,440C3280,440,3200,440,3120,440C3040,440,2960,440,2880,440C2800,440,2720,440,2640,440C2560,440,2480,440,2400,440C2320,440,2240,440,2160,440C2080,440,2000,440,1920,440C1840,440,1760,440,1680,440C1600,440,1520,440,1440,440C1360,440,1280,440,1200,440C1120,440,1040,440,960,440C880,440,800,440,720,440C640,440,560,440,480,440C400,440,320,440,240,440C160,440,80,440,40,440L0,440Z"></path></svg>